<svg xmlns="http://www.w3.org/2000/svg" xmlns:xlink="http://www.w3.org/1999/xlink" width="40" height="19" viewBox="0 0 40 19"><defs><path id="jhz8a" d="M769.748 2314.723l-.794.786a1.426 1.426 0 0 1-.998.409h-.026a1.397 1.397 0 0 1-.657-.176l-.232.166a1.457 1.457 0 0 1-1.304.198c-.466-.155-1.657-.514-2.642-.514h-.072c-.768 0-2.216.002-3.727-.858.147.594.282 1.313.309 2.018.235.239.742.73 1.183 1.147.19.18.25.458.152.7a.646.646 0 0 1-.599.4h-2.065a.644.644 0 0 1-.64-.55l-.236-1.69a9.615 9.615 0 0 1-3.303-2.418.63.63 0 0 1-.063.216l-.689 1.363a.64.64 0 0 1-.12.166l-1.049 1.038.48.95c.101.199.09.433-.028.622a.648.648 0 0 1-.549.304h-1.376a.643.643 0 0 1-.646-.64v-2.045c0-.069.011-.136.033-.202l.474-1.408c-.356.02-.705.03-1.046.03-2.854 0-5.166-.663-6.728-1.959a5.89 5.89 0 0 1-2.019 1.176l.672.484c.167.12.266.312.266.516v2.727a.64.64 0 0 1-.645.639.65.65 0 0 1-.457-.187l-1.377-1.364a.634.634 0 0 1-.17-.604l.241-.975-.762-.552c-1.28.562-2.406 1.44-2.924 1.878l.553 1.645a.632.632 0 0 1-.088.575.648.648 0 0 1-.524.266h-1.377a.643.643 0 0 1-.645-.64v-4.09c0-.218.112-.42.299-.538.018-.012 1.519-.977 2.54-2.522-.215-.654-1.122-3.452-1.389-5.073-.809.265-1.345 1.109-2.013 2.287-.528.933-1.074 1.898-1.946 2.328a.648.648 0 0 1-.866-.285.637.637 0 0 1 .289-.858c.517-.255.945-1.01 1.397-1.81.697-1.23 1.55-2.734 3.206-2.99.426-.961 1.726-1.925 2.56-2.468 1.233-.802 2.968-1.66 4.141-1.66 1.141 0 3.38.248 5.178.447.955.107 1.863.207 2.262.23.637-.29 3.156-1.358 5.641-1.358 1.956 0 4.985 1.246 5.867 1.629 1.14.495 3.848 1.76 4.356 2.827.434.913.658 3.653.73 4.702.603.446 2.094 1.62 2.7 2.772.636 1.205 1.274 1.9 1.28 1.908a.635.635 0 0 1-.018.885zm-17.13-.222c-.22.032-.437.06-.652.084l-.475 1.41.747-.74zm15.806-.274a12.29 12.29 0 0 1-1.081-1.705c-.505-.957-2.012-2.128-2.55-2.497a.638.638 0 0 1-.277-.487c-.086-1.424-.332-3.915-.628-4.538-.143-.302-1.42-1.21-3.706-2.2-2.133-.925-4.233-1.522-5.348-1.522-2.518 0-5.198 1.285-5.224 1.297a.642.642 0 0 1-.284.066c-.34 0-1.145-.087-2.54-.242-1.766-.196-3.964-.44-5.034-.44-.701 0-2.099.588-3.4 1.43-1.582 1.023-2.14 1.817-2.15 2.022 0 .693.528 2.625 1.033 4.258a.65.65 0 0 1 .607-.089.638.638 0 0 1 .386.82c-.798 2.17-2.67 3.68-3.404 4.206v.894c.806-.677 2.708-2.117 4.73-2.536 2.254-.467 3.121-1.799 3.673-3.04a.648.648 0 0 1 .85-.328.636.636 0 0 1 .331.842c-.233.527-.486.98-.768 1.378 1.177.964 3.907 2.285 9.55 1.303-.768-1.235-1.068-2.379-1.068-2.938 0-.353.29-.638.646-.638.356 0 .645.285.645.638 0 .786 1.145 4.02 4.773 5.524a12.493 12.493 0 0 0-.515-1.892.633.633 0 0 1 .04-.532c.004-.008.569-1.06.725-2.76a.643.643 0 0 1 .701-.578.64.64 0 0 1 .585.694 9.963 9.963 0 0 1-.538 2.466c1.462 1.212 2.946 1.21 3.837 1.21h.074c1.132 0 2.398.364 3.053.581a.15.15 0 0 0 .137-.022l.008-.006c-.428-.36-.835-.606-1.183-.706a.637.637 0 0 1-.44-.791c.1-.34.458-.535.8-.436.947.272 1.833 1.06 2.408 1.675.02.021.046.031.076.032a.118.118 0 0 0 .087-.035zm-5.389-7.645a.65.65 0 0 1-.909-.082c-.355-.42-.997-.982-1.416-1.108-.206.435-.348 1.854.401 3.099a.636.636 0 0 1-.224.876.648.648 0 0 1-.885-.222c-.926-1.54-.918-3.504-.38-4.442.307-.535.717-.614.934-.614 1.162 0 2.338 1.328 2.562 1.593a.635.635 0 0 1-.083.9z"/></defs><g><g transform="translate(-730 -2300)"><use fill="#fff" xlink:href="#jhz8a"/></g></g></svg>