<svg xmlns="http://www.w3.org/2000/svg" xmlns:xlink="http://www.w3.org/1999/xlink" width="28" height="27" viewBox="0 0 28 27"><defs><path id="gwnka" d="M840 2307.392c0 .626-.28.932-.515 1.078-.188.117-.41.175-.67.175-.353 0-.777-.109-1.275-.324-.74.067-1.537-.162-2.007-.332-.704 1.255-2.479 3.444-2.832 3.876-.524 1.74-1.94 2.403-2.888 2.563-.14 1.128-.774 2.628-.94 3.008v2.466l1.393 2.436a.436.436 0 0 1-.004.442.454.454 0 0 1-.392.22h-.967a.453.453 0 0 1-.43-.304l-.484-1.422a.433.433 0 0 1-.024-.14v-3.736l-.202-.793-.363.876-.714 2.796 1.162 2.063a.436.436 0 0 1-.006.44.455.455 0 0 1-.39.22h-.968a.453.453 0 0 1-.43-.304l-.485-1.422a.437.437 0 0 1-.01-.248l.955-3.738v-3.177c-.6.083-1.288.114-1.98.114-1.597 0-3.207-.165-3.77-.23-.324.41-.694.825-1.071 1.25-.976 1.095-1.984 2.23-2.319 3.306l.418 1.227 2.257 2.481a.438.438 0 0 1 .075.478.453.453 0 0 1-.413.263h-.968a.459.459 0 0 1-.378-.198l-.967-1.422a.43.43 0 0 1-.053-.106l-1.451-4.264a.437.437 0 0 1 .05-.385c.004-.006.4-.607.592-1.383.02-.081.036-.16.05-.239-.279.304-.596.61-.922.924-1.033.994-2.203 2.123-2.273 3.327v.648l1.394 2.436a.436.436 0 0 1-.005.442.454.454 0 0 1-.391.22h-.968a.453.453 0 0 1-.43-.304l-.484-1.422a.429.429 0 0 1-.023-.14v-1.107-3.632c0-.124.053-.243.145-.326.006-.005.656-.605 1.161-1.53.65-1.19.771-2.347.36-3.439a3.658 3.658 0 0 1-.276-.39c0 .553-.357 1.019-.644 1.394-.125.162-.315.41-.323.502a.448.448 0 0 1-.454.443.45.45 0 0 1-.453-.445c0-.375.245-.696.505-1.035.217-.282.462-.603.462-.86 0-.201-.05-.382-.104-.573-.117-.414-.262-.928.182-1.572.38-.55 1.274-1.31 2.225-1.888.864-.524 2.168-1.15 3.473-1.15.94 0 2.438.253 3.888.5 1.3.219 2.643.447 3.369.447.24 0 .53-.021.84-.044.752-.055 1.687-.124 2.631.052.143.026.732.031 2.313-1.027.55-.368 1.048-.75 1.352-.99-.357-.572-.526-1.13-.504-1.669.021-.507.21-.81.249-.864a.46.46 0 0 1 .513-.176 2.7 2.7 0 0 1 .643.292 2.103 2.103 0 0 1-.152-.39c-.748-.067-2.389-.396-3.791-1.938l-1.335-.436a.443.443 0 0 1-.286-.562.455.455 0 0 1 .573-.28l.827.27c-.057-.66-.198-1.238-.376-1.493a.439.439 0 0 1 .116-.618.46.46 0 0 1 .631.114c.39.555.544 1.598.562 2.45a5.115 5.115 0 0 0 1.83 1.282 4.048 4.048 0 0 1-.742-.893.434.434 0 0 1-.045-.322c.241-.973-.048-2.135-.353-2.414a.438.438 0 0 1-.022-.628.46.46 0 0 1 .64-.022c.588.537.877 1.936.658 3.083.08.114.214.289.394.464.333-.43.605-1.04.605-1.327a.45.45 0 0 1 .454-.444c.25 0 .453.199.453.444 0 .544-.359 1.295-.766 1.83.06.025.123.046.188.064.303-.274 1.056-1.036 1.124-1.926a.45.45 0 0 1 .486-.41c.25.018.437.231.418.476-.095 1.25-1.081 2.223-1.443 2.54.028.431.141.664.216.773h1.259a.51.51 0 0 0 .514-.503.45.45 0 0 1 .454-.445c.25 0 .453.2.453.445 0 .768-.638 1.392-1.421 1.392h-.03v.724c.065.035.138.074.213.112.635.331 1.063.576 1.206.924.161.396.865 1.088 1.38 1.593.762.75 1.071 1.069 1.07 1.416zm-23.508 6.257a2.067 2.067 0 0 0-.489-.73c-.26-.256-.498-.478-.713-.676.029.902-.21 1.83-.714 2.741-.43.78-.94 1.345-1.185 1.595v.463c.476-.63 1.074-1.207 1.637-1.75.615-.591 1.196-1.152 1.464-1.643zm22.599-6.194c-.107-.165-.507-.558-.805-.851-.32-.314-.659-.648-.947-.975a.406.406 0 0 1-.05.003h-.585a.45.45 0 0 1-.454-.445.45.45 0 0 1 .454-.444h.016l-.007-.013c-.1-.123-.569-.369-.797-.487-.187-.098-.363-.19-.492-.274a.438.438 0 0 1-.202-.368v-.978h-.514a.451.451 0 0 1-.059-.004c.356.492.39.982.391 1.017a.448.448 0 0 1-.428.467.45.45 0 0 1-.477-.415c-.006-.07-.065-.563-.596-.896-.022.315.062.822.567 1.493.14.186.11.447-.069.6-.543.458-3.322 2.732-4.735 2.469-.827-.155-1.66-.093-2.395-.04-.326.025-.634.047-.907.047-.804 0-2.125-.223-3.524-.46-1.411-.24-2.871-.487-3.733-.487-1.437 0-3.15 1.007-4.17 1.859a.469.469 0 0 1-.038.036c-.167.139-.381.723-.122 1.441.25.694.66 1.073 1.407 1.761.242.224.518.478.824.78.824.805 1.09 1.908.767 3.185a5.841 5.841 0 0 1-.591 1.445l.129.379c.516-.904 1.297-1.782 2.06-2.64.954-1.072 1.941-2.181 1.941-2.944 0-.246.203-.444.454-.444.25 0 .453.198.453.444 0 .467-.192.95-.498 1.448 1.306.127 4.156.339 5.639-.05v-.51a.45.45 0 0 1 .453-.445c.25 0 .454.2.454.445v.893l.607 2.377c.222-.645.42-1.362.42-1.848a.45.45 0 0 1 .447-.445c.076-.002 1.928-.075 2.473-2.04a.44.44 0 0 1 .084-.164c.696-.843 2.582-3.227 2.957-4.125.048-.113.14-.201.257-.246a.464.464 0 0 1 .358.013c.011.006 1.156.53 2.032.407h.008a.284.284 0 0 1 .041-.004h.064l.024.004c.008 0 .016.003.024.004l.019.003.03.01.012.003c.013.004.025.01.037.015l.004.002h.002l.004.003c.897.409 1.161.27 1.189.255.052-.034.085-.128.093-.266z"/></defs><g><g transform="translate(-812 -2296)"><use fill="#fff" xlink:href="#gwnka"/></g></g></svg>