<svg xmlns="http://www.w3.org/2000/svg" xmlns:xlink="http://www.w3.org/1999/xlink" width="81" height="83" viewBox="0 0 81 83"><defs><path id="ls3ea" d="M1764.38 149.8l-1.06-1.42a4.45 4.45 0 0 1-.04-5.24l1.03-1.44a4.46 4.46 0 0 0-1.58-6.56l-1.57-.84a4.46 4.46 0 0 1-2.34-4.7l.3-1.74a4.5 4.5 0 0 0-4.3-5.23l-1.79-.07a4.56 4.56 0 0 1-4.18-3.24l-.5-1.7a4.56 4.56 0 0 0-6.18-2.86l-1.65.7c-1.79.75-3.88.3-5.19-1.14l-1.18-1.32c-1.82-2-5.02-1.99-6.83.06l-1.17 1.33a4.6 4.6 0 0 1-5.17 1.2l-1.67-.68a4.58 4.58 0 0 0-6.13 2.97l-.47 1.71a4.5 4.5 0 0 1-4.13 3.3l-1.79.1a4.5 4.5 0 0 0-4.21 5.3l.33 1.73c.36 1.9-.56 3.8-2.27 4.74l-1.56.86a4.45 4.45 0 0 0-1.46 6.57l1.06 1.43a4.45 4.45 0 0 1 .04 5.24l-1.03 1.44a4.46 4.46 0 0 0 1.58 6.56l1.57.83c1.72.91 2.67 2.8 2.34 4.7l-.3 1.75a4.5 4.5 0 0 0 4.3 5.23l1.79.07a4.55 4.55 0 0 1 4.18 3.24l.5 1.7a4.56 4.56 0 0 0 6.18 2.86l1.65-.7a4.58 4.58 0 0 1 5.19 1.14l1.18 1.31a4.59 4.59 0 0 0 6.83-.05l1.17-1.33a4.6 4.6 0 0 1 5.17-1.2l1.67.67a4.57 4.57 0 0 0 6.13-2.97l.47-1.7a4.51 4.51 0 0 1 4.13-3.3l1.79-.1a4.5 4.5 0 0 0 4.21-5.3l-.33-1.73c-.36-1.9.56-3.8 2.27-4.74l1.56-.86a4.45 4.45 0 0 0 1.46-6.57z"/><path id="ls3eb" d="M1770.08 150.02l-1.26-1.7a5.28 5.28 0 0 1-.05-6.22l1.23-1.7a5.3 5.3 0 0 0-1.87-7.78l-1.87-.99a5.3 5.3 0 0 1-2.77-5.58l.35-2.06a5.35 5.35 0 0 0-5.1-6.2l-2.12-.08a5.4 5.4 0 0 1-4.96-3.84l-.6-2.02a5.4 5.4 0 0 0-7.32-3.4l-1.95.83c-2.12.9-4.6.37-6.15-1.35l-1.41-1.55a5.44 5.44 0 0 0-8.09.06l-1.4 1.58a5.45 5.45 0 0 1-6.13 1.42l-1.97-.8c-3-1.22-6.4.43-7.27 3.52l-.56 2.03a5.35 5.35 0 0 1-4.9 3.9l-2.12.12a5.34 5.34 0 0 0-5 6.28l.4 2.06a5.29 5.29 0 0 1-2.69 5.62l-1.85 1.02a5.27 5.27 0 0 0-1.73 7.79l1.26 1.7a5.28 5.28 0 0 1 .05 6.21l-1.23 1.71a5.29 5.29 0 0 0 1.87 7.77l1.87 1a5.29 5.29 0 0 1 2.77 5.57l-.35 2.07a5.34 5.34 0 0 0 5.1 6.2l2.12.08a5.4 5.4 0 0 1 4.96 3.84l.6 2.01a5.4 5.4 0 0 0 7.32 3.4l1.95-.82c2.12-.9 4.6-.37 6.15 1.34l1.41 1.56a5.44 5.44 0 0 0 8.09-.07l1.4-1.57c1.52-1.73 3.98-2.3 6.13-1.43l1.97.8c3 1.23 6.4-.43 7.27-3.51l.56-2.03a5.35 5.35 0 0 1 4.9-3.9l2.12-.12a5.34 5.34 0 0 0 5-6.28l-.4-2.07a5.29 5.29 0 0 1 2.68-5.61l1.86-1.02a5.27 5.27 0 0 0 1.73-7.8z"/></defs><g><g transform="translate(-1690 -104)"><use fill="#779a0b" xlink:href="#ls3ea"/></g><g opacity=".2" transform="translate(-1690 -104)"><use fill="#779a0b" xlink:href="#ls3eb"/></g></g></svg>