<svg xmlns="http://www.w3.org/2000/svg" xmlns:xlink="http://www.w3.org/1999/xlink" width="28" height="26" viewBox="0 0 28 26"><defs><path id="jo5wa" d="M1212.922 2305.885a.462.462 0 0 1-.2.36l-1.448.982a.445.445 0 0 1-.501 0l-1.309-.888c-1.115.17-1.894 1.091-2.47 1.772a7.695 7.695 0 0 1-.48.538c-.4.385-1.043.413-1.914.081a5.984 5.984 0 0 1-.476-.205c-.435 1.976-1.485 3.119-1.852 3.467-.228 1.048-.589 2.161-.938 3.24-.489 1.506-.95 2.929-.95 3.874 0 2.189.778 3.052.824 3.1a.456.456 0 0 1-.311.794h-.965a.453.453 0 0 1-.429-.315l-.482-1.47a.472.472 0 0 1-.023-.147v-4.349a31.804 31.804 0 0 1-.496-2.07l-.553 1.661a.461.461 0 0 1-.087.156c-1.81 2.113-2.214 3.616-2.233 4.505-.018.845.304 1.267.307 1.27.114.137.14.328.066.492a.452.452 0 0 1-.41.267h-.814a.452.452 0 0 1-.412-.27l-.452-1.012a.467.467 0 0 1-.013-.348l1.729-4.819.427-4.343c-3.283-.181-5.142-1.087-5.995-1.647-.42 1.346-1.1 2.585-1.737 3.627-.303 4.729 1.976 8.052 2 8.086.097.14.11.324.032.477a.45.45 0 0 1-.401.249h-.965a.451.451 0 0 1-.414-.276l-.633-1.471a.47.47 0 0 1-.035-.13c-.003-.03-.318-2.638-1.028-4.445.003 4.078.888 5.605.897 5.62.088.141.092.319.013.465a.45.45 0 0 1-.397.237h-.965a.454.454 0 0 1-.429-.315l-.482-1.47a.469.469 0 0 1-.022-.179c.002-.033.227-3.437-.47-6.23a.467.467 0 0 1 .033-.316c.009-.02.918-1.925.918-3.232 0-.571-.178-1.22-.384-1.97-.272-.99-.58-2.111-.58-3.425 0-2.52 2.528-3.893 3.827-3.893.38 0 .92.046 1.546.1 2.009.174 5.044.436 6.396-.51 1.892-1.323 3.401-.972 4.732-.661.147.034.294.068.44.1l.116.025c.432.097.833.165 1.198.068-1.11-.623-2.324-1.535-3.638-2.735a.465.465 0 0 1-.035-.649.446.446 0 0 1 .639-.035c.449.41.885.784 1.308 1.123a15.177 15.177 0 0 1-.569-1.067.464.464 0 0 1 .205-.616.45.45 0 0 1 .606.208c.748 1.54 1.49 2.455 2.098 2.868a8.527 8.527 0 0 1-.53-1.572.46.46 0 0 1 .328-.557.452.452 0 0 1 .549.335c.232.945.505 1.551.764 1.904.337-.292.464-.97.288-1.68a.461.461 0 0 1 .327-.559.451.451 0 0 1 .55.333c.2.806.115 1.57-.191 2.123.254-.207.535-.599.78-1.204a.45.45 0 0 1 .59-.25c.232.096.342.365.247.6-.268.662-.6 1.172-.968 1.505.168-.01.33-.032.485-.07 1.32-.324 1.812-1.63 1.997-2.122.03-.083.051-.136.075-.184a.449.449 0 0 1 .606-.206.464.464 0 0 1 .203.615l-.04.103c-.107.286-.327.868-.754 1.427.355-.13.727-.323 1.06-.612a.447.447 0 0 1 .637.052.465.465 0 0 1-.05.647c-.869.754-1.91.992-2.566 1.063.574.345 1.857.686 2.68.905.235.062.463.123.676.182 1.375.383 1.309 2.66 1.297 2.918zm-14.743 6.868a20.238 20.238 0 0 1-.063-.529c-.4.016-.785.02-1.153.014l-.437 4.436c.181-.242.38-.489.595-.744zm13.842-7.138c-.013-.62-.165-1.63-.635-1.76-.21-.059-.434-.119-.667-.18-1.189-.317-2.155-.592-2.789-.937a.698.698 0 0 1-.687.612.7.7 0 0 1-.693-.705c0-.237.116-.446.292-.574-.125.013-.252.02-.382.02-.665 0-1.395-.168-2.185-.502-.85.68-1.837.46-2.399.334l-.11-.024a19.239 19.239 0 0 1-.454-.104c-1.262-.293-2.452-.571-4.018.523-1.618 1.132-4.848.853-6.985.669-.605-.052-1.127-.097-1.469-.097-.848 0-2.924 1.042-2.924 2.973 0 1.188.29 2.245.547 3.177.215.783.418 1.521.418 2.218 0 1.298-.707 2.97-.94 3.483.096.403.174.814.237 1.225.163-.332.425-.75.792-1.327.821-1.291 1.946-3.06 2.395-4.959a.457.457 0 0 1 .317-.336.446.446 0 0 1 .442.118c.017.017 1.739 1.662 6.318 1.842a.445.445 0 0 1 .256.009c.425.011.874.01 1.348-.006a11.976 11.976 0 0 1-.013-.539c0-.254.202-.46.452-.46s.452.206.452.46c0 2.44.937 5.724.947 5.757a.466.466 0 0 1 .018.129v.128c.167-.585.367-1.205.573-1.838.358-1.106.73-2.25.943-3.29a.463.463 0 0 1 .159-.263c.002-.002.363-.306.76-.905a6.547 6.547 0 0 0 1.005-2.724.457.457 0 0 1 .254-.352.444.444 0 0 1 .43.022c.686.425 1.65.758 1.863.551.117-.113.258-.279.42-.471.663-.785 1.665-1.97 3.229-2.107a.448.448 0 0 1 .29.075l1.196.812z"/></defs><g><g transform="translate(-1185 -2297)"><use fill="#fff" xlink:href="#jo5wa"/></g></g></svg>