<svg xmlns="http://www.w3.org/2000/svg" xmlns:xlink="http://www.w3.org/1999/xlink" width="19" height="20"
     viewBox="0 0 19 20">
    <defs>
        <path id="irula"
              d="M1634.75 703.96a.87.87 0 0 1-.5 0c-9.25-2.9-9.1-9.75-9-14.76l.02-1.54c0-.38.35-.7.78-.7 3.3 0 5.81-.85 7.91-2.7a.84.84 0 0 1 1.08 0c2.1 1.85 4.61 2.7 7.91 2.7.43 0 .78.32.78.7 0 .49 0 1 .02 1.54.1 5 .25 11.87-9 14.76zm7.45-14.73l-.01-.89c-3.1-.11-5.57-.96-7.69-2.63a12.68 12.68 0 0 1-7.69 2.63l-.01.89c-.11 5.03-.23 10.73 7.7 13.33 7.93-2.6 7.81-8.3 7.7-13.33zm-3.95 2.38c.3.27.3.72 0 .99l-4.27 3.86a.8.8 0 0 1-.55.2.8.8 0 0 1-.54-.2l-2.14-1.93a.65.65 0 0 1 0-.99c.3-.27.79-.27 1.09 0l1.6 1.44 3.72-3.37c.3-.27.8-.27 1.1 0z"/>
    </defs>
    <g>
        <g transform="translate(-1625 -684)">
            <use fill="#FFFFFF" xlink:href="#irula"/>
        </g>
    </g>
</svg>