<?xml version="1.0" encoding="utf-8"?>
<!-- Generator: Adobe Illustrator 23.0.1, SVG Export Plug-In . SVG Version: 6.00 Build 0)  -->
<svg version="1.1" id="Шар_1" xmlns="http://www.w3.org/2000/svg" xmlns:xlink="http://www.w3.org/1999/xlink" x="0px" y="0px"
	 viewBox="0 0 111 61" style="enable-background:new 0 0 111 61;" xml:space="preserve">
<style type="text/css">
	.st0{fill:#B9A184;}
</style>
<g>
	<g>
		<path class="st0" d="M53.81,57c-11.83,0-23.66-0.03-35.49,0.01c-4.48,0.02-8.27-1.52-10.82-5.16c-2.5-3.56-2.15-7.34,0.9-10.49
			c2.46-2.54,5.51-3.03,8.67-1.21c3.2,1.84,4.07,6.86,1.6,9.03c-0.43,0.38-1.22,0.66-1.75,0.55c-0.77-0.16-0.85-0.95-0.48-1.59
			c1.47-2.57,1.57-4.91-1.6-6.05c-2.03-0.73-4.08-0.11-5.15,1.95c-1.45,2.79-1.2,5.47,1.16,7.74c2.17,2.09,4.97,2.88,7.79,2.9
			c21.83,0.1,43.66,0.07,65.48,0.06c0.59,0,1.63-0.15,1.68-0.38c0.21-1.07-0.87-1.19-1.54-1.57c-4.55-2.5-8.8-5.38-12.36-9.22
			c-6.4-6.89-8.4-17.07-4.85-24.97C70.89,10.07,79.95,4.6,89.61,5c11.86,0.49,20.96,12.22,17.21,22.18
			c-3.49,9.28-15.79,12.8-23.16,6.61c-3.72-3.13-4.95-7.32-3.37-11.71c1.53-4.26,5.11-6.38,9.83-6.25
			c7.06,0.19,9.71,6.11,7.23,13.03c-0.41,1.14-1.49,1.88-2.79,1.65c-1.16-0.21-2.25-0.73-2.48-2.12c-0.21-1.29,0.38-2.14,1.38-2.96
			c2.81-2.31,2.54-4.66-0.62-6.49c-2.87-1.66-5.55-0.94-7.88,0.96c-2.34,1.91-3.39,4.37-2.37,7.54c1.8,5.58,7.55,8.26,13.85,6.31
			c6.28-1.94,9.85-8.36,8.11-14.57c-3.33-11.94-19.09-15.58-29.51-6.82c-9.99,8.4-9.37,23.52,1.42,32.17
			c4.03,3.23,8.48,5.87,13.06,8.28c1.54,0.81,4.49,1.17,4.02,3.04c-0.57,2.28-3.43,1.07-5.24,1.09C76.81,57.06,65.31,57,53.81,57z"
			/>
	</g>
</g>
</svg>
